<svg width="113" height="124" viewBox="0 0 113 124" fill="none" xmlns="http://www.w3.org/2000/svg">
<path d="M58.9489 77.7591H30.9959C27.6597 77.7591 24.9552 75.0744 24.9355 71.7382V30.3811V30.3614C24.9355 27.0055 27.6597 24.2812 31.0157 24.2812H100.267C106.978 24.2812 112.407 18.8525 112.407 12.1406C112.407 5.42873 106.978 0 100.267 0H15.2033C7.14899 0 0.634521 6.45525 0.634521 14.4305C0.634521 14.47 0.634521 14.5095 0.634521 14.5687V87.4716C0.634521 95.5259 7.16873 102.06 15.2033 102.06H58.9292C65.6411 102.06 71.0698 96.6116 71.0698 89.8997C71.0895 83.1879 65.6608 77.7591 58.9489 77.7591Z" fill="black"/>
<path d="M100.247 41.3174H61.3771C54.6652 41.3174 48.0125 46.7461 48.0125 53.458C48.0125 60.1699 54.6652 65.5986 61.3771 65.5986H82.026C85.3819 65.5986 88.1061 68.3228 88.1061 71.6788V71.6985V89.8996C88.1061 96.6115 93.5546 102.06 100.247 102.06C106.959 102.06 112.387 96.6115 112.387 89.8996V53.458C112.407 46.7461 106.959 41.3174 100.247 41.3174Z" fill="black"/>
<path fill-rule="evenodd" clip-rule="evenodd" d="M24.0471 110.746C24.0471 110.746 16.6641 110.746 15.835 110.746C15.0058 110.746 15.0058 111.575 15.0058 111.575C15.0058 111.575 15.0058 121.445 15.0058 122.255C15.0058 123.084 15.835 123.084 15.835 123.084C15.835 123.084 23.6326 123.084 24.0471 123.084C24.4617 123.084 24.4617 122.669 24.4617 122.669C24.4617 122.669 24.4617 121.84 24.4617 121.445C24.4617 121.031 24.0471 121.031 24.0471 121.031C24.0471 121.031 17.888 121.031 17.4734 121.031C17.0589 121.031 17.0589 120.616 17.0589 120.616C17.0589 120.616 17.0589 118.563 17.0589 118.149C17.0589 117.734 17.4734 117.734 17.4734 117.734C17.4734 117.734 21.165 117.734 21.5795 117.734C21.9941 117.734 21.9941 117.32 21.9941 117.32V116.096C21.9941 116.096 21.9941 115.681 21.5795 115.681H17.4734C17.0589 115.681 17.0589 115.266 17.0589 115.266C17.0589 115.266 17.0589 113.628 17.0589 113.213C17.0589 112.799 17.4734 112.799 17.4734 112.799C17.4734 112.799 23.6326 112.799 24.0471 112.799C24.4617 112.799 24.4617 112.384 24.4617 112.384C24.4617 112.384 24.4617 111.555 24.4617 111.16C24.442 110.746 24.0471 110.746 24.0471 110.746ZM11.3143 110.746C11.3143 110.746 4.74061 110.746 2.68756 110.746C0.634514 110.746 0.634521 112.799 0.634521 112.799C0.634521 112.799 0.634521 118.958 0.634521 121.011C0.634521 123.064 2.68756 123.064 2.68756 123.064C2.68756 123.064 7.62277 123.064 9.67582 123.064C11.7289 123.064 11.7289 121.011 11.7289 121.011C11.7289 121.011 11.7289 117.714 11.7289 116.905C11.7289 116.076 10.8998 116.076 10.8998 116.076C10.8998 116.076 6.79366 116.076 6.3791 116.076C5.96454 116.076 5.96455 116.49 5.96455 116.49C5.96455 116.49 5.96455 117.32 5.96455 117.714C5.96455 118.129 6.3791 118.129 6.3791 118.129C6.3791 118.129 8.43215 118.129 9.26127 118.129C9.67582 118.129 9.67582 118.543 9.67582 118.543C9.67582 118.543 9.67582 119.353 9.67582 120.182C9.67582 121.011 8.86645 121.011 8.86645 121.011C8.86645 121.011 4.34579 121.011 3.51668 121.011C2.68756 121.011 2.68756 120.182 2.68756 120.182C2.68756 120.182 2.68756 114.437 2.68756 113.608C2.68756 112.779 3.51668 112.779 3.51668 112.779C3.51668 112.779 10.9195 112.779 11.3143 112.779C11.7289 112.779 11.7289 112.365 11.7289 112.365C11.7289 112.365 11.7289 111.535 11.7289 111.141C11.7091 110.746 11.3143 110.746 11.3143 110.746ZM36.3654 110.746C34.3124 110.746 28.9626 110.746 28.9626 110.746C28.9626 110.746 26.9096 110.746 26.9096 112.799C26.9096 114.852 26.9096 121.011 26.9096 121.011C26.9096 121.011 26.9096 123.064 28.9626 123.064C31.0157 123.064 36.3654 123.064 36.3654 123.064C36.3654 123.064 38.4185 123.064 38.4185 121.011C38.4185 118.958 38.4185 112.799 38.4185 112.799C38.4185 112.799 38.4185 110.746 36.3654 110.746ZM36.3654 120.182C36.3654 121.011 35.5363 121.011 35.5363 121.011C35.5363 121.011 30.6011 121.011 29.7917 121.011C28.9626 121.011 28.9626 120.182 28.9626 120.182C28.9626 120.182 28.9626 114.437 28.9626 113.608C28.9626 112.779 29.7917 112.779 29.7917 112.779C29.7917 112.779 34.7269 112.779 35.5363 112.779C36.3654 112.779 36.3654 113.608 36.3654 113.608C36.3654 113.608 36.3654 119.373 36.3654 120.182ZM54.0137 110.746C54.0137 110.746 53.5992 110.746 52.7898 110.746C52.3752 110.746 51.9607 111.575 51.9607 111.575C51.9607 111.575 48.3678 117.576 48.2691 117.734C48.1704 117.892 47.973 117.892 47.8546 117.734C47.519 117.162 44.1631 111.575 44.1631 111.575C44.1631 111.575 43.7485 110.746 43.3339 110.746C42.5048 110.746 42.11 110.746 42.11 110.746C42.11 110.746 41.6954 110.746 41.6954 111.16C41.6954 111.575 41.6954 122.65 41.6954 122.65C41.6954 122.65 41.6954 123.064 42.11 123.064C42.5246 123.064 43.3339 123.064 43.3339 123.064C43.3339 123.064 43.7485 123.064 43.7485 122.65V115.503C43.7485 114.832 44.1631 115.247 44.1631 115.247C44.1631 115.247 46.7491 119.59 47.5979 120.972C47.8348 121.366 48.3086 121.366 48.5258 120.972C49.3351 119.55 51.9607 115.247 51.9607 115.247C51.9607 115.247 52.3752 114.793 52.3752 115.503C52.3752 116.332 52.3752 122.65 52.3752 122.65C52.3752 122.65 52.3752 123.064 52.7898 123.064C53.2044 123.064 54.0137 123.064 54.0137 123.064C54.0137 123.064 54.4283 123.064 54.4283 122.65V111.16C54.4283 110.746 54.0137 110.746 54.0137 110.746ZM79.0846 110.746C78.67 110.746 69.6287 110.746 69.6287 110.746C69.6287 110.746 69.2142 110.746 69.2142 111.16C69.2142 111.575 69.2142 112.384 69.2142 112.384C69.2142 112.384 69.2142 112.799 69.6287 112.799C70.0433 112.799 72.9057 112.799 72.9057 112.799C72.9057 112.799 73.3203 112.799 73.3203 113.213C73.3203 113.628 73.3203 122.669 73.3203 122.669C73.3203 122.669 73.3203 123.084 73.7348 123.084H74.9785C75.3931 123.084 75.3931 122.669 75.3931 122.669V113.213C75.3931 113.213 75.393 112.799 75.8076 112.799C76.2222 112.799 79.1043 112.799 79.1043 112.799C79.1043 112.799 79.5189 112.799 79.5189 112.384C79.5189 111.97 79.5189 111.16 79.5189 111.16C79.5189 111.16 79.4794 110.746 79.0846 110.746ZM112.348 122.235C111.933 121.426 108.242 112.384 107.827 111.555C107.413 110.726 106.998 110.726 106.998 110.726H105.754C105.754 110.726 105.34 110.726 104.945 111.555C104.531 112.384 100.424 122.235 100.424 122.235C100.424 122.235 100.01 123.064 100.424 123.064C100.839 123.064 101.944 123.064 101.944 123.064C101.944 123.064 102.241 123.064 102.458 122.63C102.675 122.195 103.208 120.991 103.425 120.577C103.642 120.162 103.919 120.162 103.919 120.162H108.558C108.558 120.162 108.952 120.162 109.17 120.557C109.387 120.952 110.216 122.59 110.216 122.59C110.216 122.59 110.295 123.044 110.709 123.044C111.124 123.044 112.348 123.044 112.348 123.044C112.348 123.044 112.762 123.064 112.348 122.235ZM107.65 118.129C107.255 118.129 105.182 118.149 104.748 118.149C104.313 118.149 104.254 117.872 104.531 117.339C104.787 116.806 105.853 114.319 106.011 113.944C106.189 113.549 106.505 113.608 106.702 114.043C106.88 114.477 107.788 116.747 108.025 117.359C108.242 117.931 108.064 118.129 107.65 118.129ZM66.7466 110.746C66.332 110.746 58.5344 110.746 58.5344 110.746C58.5344 110.746 57.7053 110.746 57.7053 111.575C57.7053 112.404 57.7053 122.255 57.7053 122.255C57.7053 122.255 57.7053 123.084 58.5344 123.084C59.3635 123.084 66.7466 123.084 66.7466 123.084C66.7466 123.084 67.1611 123.084 67.1611 122.669C67.1611 122.255 67.1611 121.445 67.1611 121.445C67.1611 121.445 67.1611 121.031 66.7466 121.031C66.332 121.031 60.1729 121.031 60.1729 121.031C60.1729 121.031 59.7583 121.031 59.7583 120.616C59.7583 120.202 59.7583 118.149 59.7583 118.149C59.7583 118.149 59.7583 117.734 60.1729 117.734C60.5874 117.734 64.2789 117.734 64.2789 117.734C64.2789 117.734 64.6935 117.734 64.6935 117.32C64.6935 116.905 64.6935 116.096 64.6935 116.096C64.6935 116.096 64.6935 115.681 64.2789 115.681C63.8644 115.681 60.1729 115.681 60.1729 115.681C60.1729 115.681 59.7583 115.681 59.7583 115.266C59.7583 114.852 59.7583 113.213 59.7583 113.213C59.7583 113.213 59.7583 112.799 60.1729 112.799C60.5874 112.799 66.7466 112.799 66.7466 112.799C66.7466 112.799 67.1611 112.799 67.1611 112.384C67.1611 111.97 67.1611 111.16 67.1611 111.16C67.1611 111.16 67.1611 110.746 66.7466 110.746ZM97.562 110.746C97.1474 110.746 96.3381 110.746 96.3381 110.746C96.3381 110.746 95.9235 110.746 95.9235 111.16C95.9235 111.575 95.9235 122.65 95.9235 122.65C95.9235 122.65 95.9235 123.064 96.3381 123.064C96.7526 123.064 97.562 123.064 97.562 123.064C97.562 123.064 97.9766 123.064 97.9766 122.65C97.9766 122.235 97.9766 111.16 97.9766 111.16C97.9766 111.16 97.9765 110.746 97.562 110.746ZM89.7446 119.373C89.7446 119.373 88.8365 118.563 89.5669 118.563C89.9815 118.563 90.1592 118.563 90.1592 118.563C90.1592 118.563 92.2122 118.563 92.2122 116.51C92.2122 114.457 92.2122 112.819 92.2122 112.819C92.2122 112.819 92.2122 110.766 90.1592 110.766C88.1061 110.766 82.7564 110.766 82.7564 110.766C82.7564 110.766 81.947 110.766 81.947 111.595C81.947 112.424 81.947 122.689 81.947 122.689C81.947 122.689 81.947 123.104 82.3615 123.104C82.7564 123.104 83.5855 123.104 83.5855 123.104C83.5855 123.104 84 123.104 84 122.689C84 122.274 84 118.997 84 118.997C84 118.997 84 118.603 84.4146 118.603H85.6385C86.0531 118.603 86.4677 118.603 86.8625 118.997C87.277 119.412 90.3171 122.867 90.3171 122.867C90.3171 122.867 90.475 123.104 90.9686 123.104C91.3831 123.104 92.607 123.104 92.607 123.104C92.607 123.104 93.0216 123.104 92.607 122.689C92.2122 122.235 89.7446 119.373 89.7446 119.373ZM84.4146 116.49C84 116.49 84 116.076 84 116.076C84 116.076 84 113.608 84 113.194C84 112.779 84.4146 112.779 84.4146 112.779C84.4146 112.779 88.5207 112.779 89.3498 112.779C90.1789 112.779 90.1789 113.608 90.1789 113.608C90.1789 113.608 90.1789 114.832 90.1789 115.661C90.1789 116.471 89.3498 116.471 89.3498 116.471C89.3498 116.471 84.8292 116.49 84.4146 116.49Z" fill="black"/>
</svg>
