<svg width="42" height="38" fill="none" xmlns="http://www.w3.org/2000/svg"><path fill-rule="evenodd" clip-rule="evenodd" d="M21.912 28.363H11.413c-1.255 0-2.272-.975-2.28-2.186l-.003-.002v-14.99c0-1.216 1.022-2.203 2.283-2.203h26.021C39.958 8.983 42 7.013 42 4.58S39.957.175 37.434.175H5.479C2.453.175 0 2.518 0 5.41l.002.048L0 5.459v26.43c0 2.919 2.453 5.286 5.478 5.286h16.434c2.523 0 4.565-1.973 4.565-4.406 0-2.432-2.042-4.406-4.565-4.406z" fill="#000"/><path fill-rule="evenodd" clip-rule="evenodd" d="M36.805 14.847h-14.49c-2.502 0-4.982 1.998-4.982 4.466 0 2.466 2.48 4.464 4.982 4.464h7.698c1.252 0 2.265 1 2.265 2.233l-.003.006h.003v6.692c0 2.467 2.028 4.467 4.527 4.467 2.502 0 4.528-2 4.528-4.467V19.313c0-2.468-2.026-4.466-4.528-4.466z" fill="#000"/></svg>